# xmcd
# 
# Track frame offsets:
#     150
#     17559
#     41449
#     62956
#     81093
#     95358
#     119208
#     134433
#     149104
#     164594
#     178720
#     193863
#     212012
#     224121
#     240557
#     257442
#     270786
#     285327
#     299500
#     312359
# 
# Disc length: 4388
# 
# Revision: 1
# Processed by: cddbd v1.5.2PL0 Copyright (c) Steve Scherf et al.
# Submitted via: fre:ac v1.0.17
# 
DISCID=3c112214
DTITLE=Count Basie - April in Paris - King of Swing
DYEAR=1956
DGENRE=Jazz
TTITLE0=April in Paris
TTITLE1=Corner Pocket
TTITLE2=Didn't You
TTITLE3=Sweety Cakes
TTITLE4=Magic
TTITLE5=Shiny Stockings
TTITLE6=What Am I Here For
TTITLE7=Midgets
TTITLE8=Mambo Inn
TTITLE9=Dinner With Friends
TTITLE10=Cherry Point
TTITLE11=Bubbles
TTITLE12=Right On
TTITLE13=The Blues Done Come back
TTITLE14=Plymouth Rock
TTITLE15=I Feel Like a New Man
TTITLE16=You For Me
TTITLE17=Soft Drink
TTITLE18=Two For the Blues
TTITLE19=Slow But Sure
EXTD=YEAR: 1956
EXTT0=
EXTT1=
EXTT2=
EXTT3=
EXTT4=
EXTT5=
EXTT6=
EXTT7=
EXTT8=
EXTT9=
EXTT10=
EXTT11=
EXTT12=
EXTT13=
EXTT14=
EXTT15=
EXTT16=
EXTT17=
EXTT18=
EXTT19=
PLAYORDER=
